<svg width="21" height="17" viewBox="0 0 21 17" fill="none" xmlns="http://www.w3.org/2000/svg">
<g clip-path="url(#clip0_2044_6660)">
<path d="M0 0.5H21V16.5H0V0.5Z" fill="#012169"/>
<path d="M2.46094 0.5L10.4672 6.53333L18.4406 0.5H21V2.56667L13.125 8.53333L21 14.4667V16.5H18.375L10.5 10.5333L2.65781 16.5H0V14.5L7.84219 8.56667L0 2.63333V0.5H2.46094Z" fill="white"/>
<path d="M13.9125 9.86667L21 15.1667V16.5L12.1078 9.86667H13.9125ZM7.875 10.5333L8.07187 11.7L1.77187 16.5H0L7.875 10.5333ZM21 0.5V0.6L12.8297 6.86667L12.8953 5.4L19.3594 0.5H21ZM0 0.5L7.84219 6.36667H5.87344L0 1.9V0.5Z" fill="#C8102E"/>
<path d="M7.90781 0.5V16.5H13.1578V0.5H7.90781ZM0 5.83333V11.1667H21V5.83333H0Z" fill="white"/>
<path d="M0 6.93333V10.1333H21V6.93333H0ZM8.95781 0.5V16.5H12.1078V0.5H8.95781Z" fill="#C8102E"/>
</g>
<defs>
<clipPath id="clip0_2044_6660">
<rect width="21" height="16" fill="white" transform="translate(0 0.5)"/>
</clipPath>
</defs>
</svg>
