<svg width="32" height="32" viewBox="0 0 32 32" fill="none" xmlns="http://www.w3.org/2000/svg">
<g clip-path="url(#clip0_2684_15267)">
<path d="M16 3C23.1797 3 29 8.8203 29 16C29 23.1797 23.1797 29 16 29C8.8203 29 3 23.1797 3 16C3 8.8203 8.8203 3 16 3ZM16 5C9.92487 5 5 9.92487 5 16C5 21.738 9.39363 26.4468 15 26.9521V18.999H12C11.4477 18.999 11 18.5513 11 17.999C11.0001 17.4468 11.4478 16.999 12 16.999H15V14C15 12.9391 15.4217 11.922 16.1719 11.1719C16.922 10.4217 17.9391 10 19 10H21C21.5523 10 22 10.4477 22 11C22 11.5523 21.5523 12 21 12H19C18.4696 12 17.961 12.2109 17.5859 12.5859C17.2109 12.961 17 13.4696 17 14V16.999H20C20.5522 16.999 20.9999 17.4468 21 17.999C21 18.5513 20.5523 18.999 20 18.999H17V26.9521C22.6064 26.4468 27 21.738 27 16C27 9.92487 22.0751 5 16 5Z" fill="#333333"/>
</g>
<defs>
<clipPath id="clip0_2684_15267">
<rect width="32" height="32" fill="white"/>
</clipPath>
</defs>
</svg>
