<svg width="24" height="24" viewBox="0 0 24 24" fill="none" xmlns="http://www.w3.org/2000/svg">
<g clip-path="url(#clip0_2091_13333)">
<path d="M18.2197 4.71985C18.5126 4.42696 18.9874 4.42696 19.2803 4.71985C19.5731 5.01274 19.5731 5.48752 19.2803 5.7804L13.0605 12.0001L19.2803 18.2198C19.5731 18.5127 19.5731 18.9875 19.2803 19.2804C18.9874 19.5733 18.5126 19.5732 18.2197 19.2804L12 13.0607L5.78027 19.2804C5.4874 19.5733 5.01262 19.5732 4.71973 19.2804C4.42683 18.9875 4.42683 18.5127 4.71973 18.2198L10.9395 12.0001L4.71973 5.7804C4.42683 5.4875 4.42683 5.01274 4.71973 4.71985C5.01262 4.42696 5.48738 4.42696 5.78027 4.71985L12 10.9396L18.2197 4.71985Z" fill="#333333"/>
</g>
<defs>
<clipPath id="clip0_2091_13333">
<rect width="24" height="24" fill="white"/>
</clipPath>
</defs>
</svg>
