<svg width="21" height="16" viewBox="0 0 21 16" fill="none" xmlns="http://www.w3.org/2000/svg">
<g clip-path="url(#clip0_2001_14771)">
<path d="M0 0H21V16H0V0Z" fill="white"/>
<path d="M8.9248 0H12.0748V16H8.9248V0Z" fill="#FF0000"/>
<path d="M0 6.40002H21V9.60002H0V6.40002Z" fill="#FF0000"/>
<path fill-rule="evenodd" clip-rule="evenodd" d="M4.81648 12.4368C4.8493 11.8768 4.94773 11.4002 4.94773 11.4002C4.94773 11.4002 4.62617 11.4335 4.46211 11.4335C4.29805 11.4335 3.97648 11.4002 3.97648 11.4002C3.97648 11.4002 4.07492 11.8768 4.10773 12.4402C3.5532 12.4068 3.08398 12.3068 3.08398 12.3068C3.08398 12.3068 3.1168 12.5535 3.1168 12.8002C3.1168 13.0468 3.08398 13.2935 3.08398 13.2935C3.08398 13.2935 3.5532 13.1935 4.10773 13.1602C4.07492 13.7235 3.97648 14.2002 3.97648 14.2002C3.97648 14.2002 4.2193 14.1668 4.46211 14.1668C4.70492 14.1668 4.94773 14.2002 4.94773 14.2002C4.94773 14.2002 4.8493 13.7235 4.81648 13.1602C5.37102 13.1935 5.84023 13.2935 5.84023 13.2935C5.84023 13.2935 5.80742 12.9668 5.80742 12.8002C5.80742 12.6335 5.84023 12.3068 5.84023 12.3068C5.84023 12.3068 5.37102 12.4068 4.81977 12.4402L4.81648 12.4368ZM16.8915 2.83684C16.9243 2.27684 17.0227 1.80017 17.0227 1.80017C17.0227 1.80017 16.7012 1.8335 16.5371 1.8335C16.373 1.8335 16.0515 1.80017 16.0515 1.80017C16.0515 1.80017 16.1499 2.27684 16.1827 2.83684C15.6282 2.8035 15.159 2.70684 15.159 2.70684C15.159 2.70684 15.1918 2.9535 15.1918 3.20017C15.1918 3.44684 15.159 3.6935 15.159 3.6935C15.159 3.6935 15.6282 3.5935 16.1827 3.56017C16.1499 4.1235 16.0515 4.60017 16.0515 4.60017C16.0515 4.60017 16.2943 4.56684 16.5371 4.56684C16.7799 4.56684 17.0227 4.60017 17.0227 4.60017C17.0227 4.60017 16.9243 4.1235 16.8915 3.5635C17.446 3.59684 17.9152 3.69684 17.9152 3.69684C17.9152 3.69684 17.8824 3.3635 17.8824 3.20017C17.8824 3.03684 17.9152 2.70684 17.9152 2.70684C17.9152 2.70684 17.446 2.80684 16.8915 2.84017V2.83684ZM4.81648 2.83684C4.8493 2.27684 4.94773 1.80017 4.94773 1.80017C4.94773 1.80017 4.62617 1.8335 4.46211 1.8335C4.29805 1.8335 3.97648 1.80017 3.97648 1.80017C3.97648 1.80017 4.07492 2.27684 4.10773 2.84017C3.5532 2.80684 3.08398 2.70684 3.08398 2.70684C3.08398 2.70684 3.1168 2.9535 3.1168 3.20017C3.1168 3.44684 3.08398 3.6935 3.08398 3.6935C3.08398 3.6935 3.5532 3.5935 4.10773 3.56017C4.07492 4.1235 3.97648 4.60017 3.97648 4.60017C3.97648 4.60017 4.2193 4.56684 4.46211 4.56684C4.70492 4.56684 4.94773 4.60017 4.94773 4.60017C4.94773 4.60017 4.8493 4.1235 4.81648 3.56017C5.37102 3.5935 5.84023 3.6935 5.84023 3.6935C5.84023 3.6935 5.80742 3.36684 5.80742 3.20017C5.80742 3.0335 5.84023 2.70684 5.84023 2.70684C5.84023 2.70684 5.37102 2.80684 4.81977 2.84017L4.81648 2.83684ZM16.8915 12.4368C16.9243 11.8768 17.0227 11.4002 17.0227 11.4002C17.0227 11.4002 16.7012 11.4335 16.5371 11.4335C16.373 11.4335 16.0515 11.4002 16.0515 11.4002C16.0515 11.4002 16.1499 11.8768 16.1827 12.4402C15.6282 12.4068 15.159 12.3068 15.159 12.3068C15.159 12.3068 15.1918 12.5535 15.1918 12.8002C15.1918 13.0468 15.159 13.2935 15.159 13.2935C15.159 13.2935 15.6282 13.1935 16.1827 13.1602C16.1499 13.7235 16.0515 14.2002 16.0515 14.2002C16.0515 14.2002 16.2943 14.1668 16.5371 14.1668C16.7799 14.1668 17.0227 14.2002 17.0227 14.2002C17.0227 14.2002 16.9243 13.7235 16.8915 13.1602C17.446 13.1935 17.9152 13.2935 17.9152 13.2935C17.9152 13.2935 17.8824 12.9668 17.8824 12.8002C17.8824 12.6335 17.9152 12.3068 17.9152 12.3068C17.9152 12.3068 17.446 12.4068 16.8915 12.4402V12.4368Z" fill="#FF0000"/>
</g>
<defs>
<clipPath id="clip0_2001_14771">
<rect width="21" height="16" fill="white"/>
</clipPath>
</defs>
</svg>
