<svg width="21" height="18" viewBox="0 0 21 18" fill="none" xmlns="http://www.w3.org/2000/svg">
<path d="M15.1865 0.75C16.5289 0.751513 17.8164 1.28514 18.7656 2.23438C19.6556 3.12431 20.1798 4.31147 20.2432 5.5625L20.25 5.81348C20.2495 8.74341 18.0511 11.5175 15.5889 13.6738C13.168 15.7939 10.6906 17.1448 10.5049 17.2432H10.5039L10.5 17.2461L10.4951 17.2432C10.3094 17.1448 7.83196 15.7939 5.41113 13.6738C2.9489 11.5175 0.750488 8.74341 0.75 5.81348C0.751513 4.47106 1.28514 3.18361 2.23438 2.23438C3.18341 1.28534 4.47039 0.751736 5.8125 0.75C7.52926 0.75 8.99525 1.48492 9.90039 2.69043L10.5 3.48926L11.0996 2.69043C12.0046 1.48514 13.4702 0.750278 15.1865 0.75Z" stroke="white" stroke-width="1.5"/>
</svg>
