<svg width="32" height="28" viewBox="0 0 32 28" fill="none" xmlns="http://www.w3.org/2000/svg">
<path d="M15.8125 25.375L15.3389 26.2559C15.6346 26.4149 15.9904 26.4149 16.2861 26.2559L15.8125 25.375ZM15.8125 25.375C16.2562 26.1989 16.285 26.2516 16.2871 26.2549H16.2881C16.2888 26.2545 16.2899 26.2535 16.291 26.2529C16.2932 26.2517 16.2961 26.2501 16.2998 26.248C16.3075 26.2438 16.3189 26.2382 16.333 26.2305C16.3615 26.2148 16.403 26.1918 16.4561 26.1621C16.5622 26.1027 16.7159 26.0158 16.9102 25.9023C17.2988 25.6754 17.8514 25.343 18.5127 24.917C19.8332 24.0663 21.5987 22.8354 23.3691 21.3203C25.1356 19.8086 26.9338 17.9903 28.2969 15.959C29.6584 13.9298 30.625 11.6282 30.625 9.17188C30.625 7.00456 29.764 4.92608 28.2314 3.39355C26.6989 1.86103 24.6204 1 22.4531 1C19.7493 1 17.3104 2.19011 15.8125 4.22266C14.3146 2.19011 11.8757 1 9.17188 1C7.00456 1 4.92608 1.86103 3.39355 3.39355C1.86103 4.92608 1 7.00456 1 9.17188C1 11.6282 1.9666 13.9298 3.32812 15.959C4.69116 17.9903 6.48939 19.8086 8.25586 21.3203C10.0263 22.8354 11.7918 24.0663 13.1123 24.917C13.7736 25.343 14.3262 25.6754 14.7148 25.9023C14.9091 26.0158 15.0628 26.1027 15.1689 26.1621C15.222 26.1918 15.2635 26.2148 15.292 26.2305C15.3061 26.2382 15.3175 26.2438 15.3252 26.248C15.3289 26.2501 15.3318 26.2517 15.334 26.2529C15.3351 26.2535 15.3362 26.2545 15.3369 26.2549H15.3379C15.34 26.2516 15.3688 26.1989 15.8125 25.375Z" stroke="white" stroke-width="2" stroke-linecap="round" stroke-linejoin="round"/>
</svg>
