<svg width="32" height="32" viewBox="0 0 32 32" fill="none" xmlns="http://www.w3.org/2000/svg">
<g clip-path="url(#clip0_2684_15281)">
<path d="M27 3C28.1046 3 29 3.89543 29 5V27C29 28.1046 28.1046 29 27 29H5C3.89543 29 3 28.1046 3 27V5C3 3.89543 3.89543 3 5 3H27ZM5 27H27V5H5V27ZM11 13C11.5523 13 12 13.4477 12 14V22C12 22.5523 11.5523 23 11 23C10.4477 23 10 22.5523 10 22V14C10 13.4477 10.4477 13 11 13ZM18.5 13C19.6935 13 20.8377 13.4744 21.6816 14.3184C22.5256 15.1623 23 16.3065 23 17.5V22C23 22.5523 22.5523 23 22 23C21.4477 23 21 22.5523 21 22V17.5C21 16.837 20.7364 16.2013 20.2676 15.7324C19.7987 15.2636 19.163 15 18.5 15C17.837 15 17.2013 15.2636 16.7324 15.7324C16.2636 16.2013 16 16.837 16 17.5V22C16 22.5523 15.5523 23 15 23C14.4477 23 14 22.5523 14 22V14C14 13.4477 14.4477 13 15 13C15.4753 13 15.872 13.3319 15.9736 13.7764C16.7137 13.2741 17.5927 13 18.5 13ZM11 9C11.8284 9 12.5 9.67157 12.5 10.5C12.5 11.3284 11.8284 12 11 12C10.1716 12 9.5 11.3284 9.5 10.5C9.5 9.67157 10.1716 9 11 9Z" fill="#333333"/>
</g>
<defs>
<clipPath id="clip0_2684_15281">
<rect width="32" height="32" fill="white"/>
</clipPath>
</defs>
</svg>
