<svg width="16" height="17" viewBox="0 0 16 17" fill="none" xmlns="http://www.w3.org/2000/svg">
<g clip-path="url(#clip0_2185_9283)">
<path d="M7 2C10.0376 2 12.5 4.46243 12.5 7.5C12.5 8.83872 12.0206 10.0648 11.2256 11.0186L14.3535 14.1465C14.5485 14.3418 14.5487 14.6593 14.3535 14.8545C14.1583 15.0494 13.8407 15.0494 13.6455 14.8545L10.5176 11.7256C9.56392 12.5203 8.33845 13 7 13C3.96243 13 1.5 10.5376 1.5 7.5C1.5 4.46243 3.96243 2 7 2ZM7 3C4.51472 3 2.5 5.01472 2.5 7.5C2.5 9.98528 4.51472 12 7 12C9.48528 12 11.5 9.98528 11.5 7.5C11.5 5.01472 9.48528 3 7 3Z" fill="white"/>
</g>
<defs>
<clipPath id="clip0_2185_9283">
<rect width="16" height="16" fill="white" transform="translate(0 0.5)"/>
</clipPath>
</defs>
</svg>
