<svg width="20" height="20" viewBox="0 0 20 20" fill="none" xmlns="http://www.w3.org/2000/svg">
<path d="M18.293 0.292969C18.6835 -0.0975555 19.3165 -0.0975555 19.707 0.292969C20.0976 0.683493 20.0976 1.31651 19.707 1.70703L11.4141 10L19.707 18.293C20.0976 18.6835 20.0976 19.3165 19.707 19.707C19.3165 20.0976 18.6835 20.0976 18.293 19.707L10 11.4141L1.70703 19.707C1.31651 20.0976 0.683493 20.0976 0.292969 19.707C-0.0975555 19.3165 -0.0975555 18.6835 0.292969 18.293L8.58594 10L0.292969 1.70703C-0.0975555 1.31651 -0.0975555 0.683493 0.292969 0.292969C0.683493 -0.0975555 1.31651 -0.0975555 1.70703 0.292969L10 8.58594L18.293 0.292969Z" fill="#FF5555"/>
</svg>
