<svg width="16" height="17" viewBox="0 0 16 17" fill="none" xmlns="http://www.w3.org/2000/svg">
<g clip-path="url(#clip0_1499_12604)">
<path d="M12.1465 3.64648C12.3417 3.45122 12.6583 3.45122 12.8535 3.64648C13.0488 3.84175 13.0488 4.15825 12.8535 4.35352L8.70703 8.5L12.8535 12.6465C13.0488 12.8417 13.0488 13.1583 12.8535 13.3535C12.6583 13.5488 12.3417 13.5488 12.1465 13.3535L8 9.20703L3.85352 13.3535C3.65825 13.5488 3.34175 13.5488 3.14648 13.3535C2.95122 13.1583 2.95122 12.8417 3.14648 12.6465L7.29297 8.5L3.14648 4.35352C2.95122 4.15825 2.95122 3.84175 3.14648 3.64648C3.34175 3.45122 3.65825 3.45122 3.85352 3.64648L8 7.79297L12.1465 3.64648Z" fill="#808080"/>
</g>
<defs>
<clipPath id="clip0_1499_12604">
<rect width="16" height="16" fill="white" transform="translate(0 0.5)"/>
</clipPath>
</defs>
</svg>
